<svg xmlns="http://www.w3.org/2000/svg" width="26" height="26" viewBox="0 0 26 26" fill="none">
  <path d="M13.075 7.75C10.15 7.75 7.82498 10.075 7.82498 13C7.82498 15.925 10.15 18.25 13.075 18.25C16 18.25 18.325 15.925 18.325 13C18.325 10.075 16 7.75 13.075 7.75ZM13.075 16.75C10.975 16.75 9.32498 15.1 9.32498 13C9.32498 10.9 10.975 9.25 13.075 9.25C15.175 9.25 16.825 10.9 16.825 13C16.825 15.1 15.175 16.75 13.075 16.75Z" fill="#171717"/>
  <path d="M24.1 10.525L22 9.85L21.55 8.725L22.6 6.775C22.825 6.325 22.75 5.725 22.375 5.35L20.575 3.55C20.2 3.175 19.6 3.1 19.15 3.325L17.2 4.375L16.075 3.925L15.4 1.825C15.25 1.375 14.8 1 14.275 1H11.725C11.2 1 10.75 1.375 10.675 1.9L10 4C9.55 4.075 9.175 4.225 8.8 4.45L6.85 3.4C6.4 3.175 5.8 3.25 5.425 3.625L3.625 5.425C3.25 5.8 3.175 6.4 3.4 6.85L4.375 8.725C4.225 9.1 4.075 9.55 3.925 9.925L1.825 10.6C1.375 10.75 1 11.2 1 11.725V14.275C1 14.8 1.375 15.25 1.9 15.4L4 16.075L4.45 17.2L3.4 19.15C3.175 19.6 3.25 20.2 3.625 20.575L5.425 22.375C5.8 22.75 6.4 22.825 6.85 22.6L8.8 21.55L9.925 22L10.6 24.175C10.75 24.625 11.2 25 11.725 25H14.275C14.8 25 15.25 24.625 15.4 24.175L16.075 22L17.2 21.55L19.15 22.6C19.6 22.825 20.2 22.75 20.575 22.375L22.375 20.575C22.75 20.2 22.825 19.6 22.6 19.15L21.55 17.2L22 16.075L24.175 15.4C24.625 15.25 25 14.8 25 14.275V11.725C25 11.2 24.625 10.675 24.1 10.525ZM23.5 14.05L20.8 14.875L20.725 15.25L20.05 16.825L19.825 17.2L21.175 19.675L19.675 21.175L17.2 19.825L16.825 20.05C16.3 20.35 15.775 20.575 15.25 20.725L14.875 20.8L14.05 23.5H11.95L11.125 20.8L10.75 20.725L9.175 20.05L8.8 19.825L6.325 21.175L4.825 19.675L6.175 17.2L5.95 16.825C5.65 16.3 5.425 15.775 5.275 15.25L5.2 14.875L2.5 14.05V11.95L5.05 11.2L5.2 10.825C5.35 10.225 5.575 9.7 5.875 9.175L6.1 8.8L4.825 6.325L6.325 4.825L8.725 6.175L9.1 5.95C9.625 5.65 10.15 5.425 10.75 5.275L11.125 5.125L11.95 2.5H14.05L14.875 5.125L15.25 5.275C15.775 5.425 16.3 5.65 16.825 5.95L17.2 6.175L19.675 4.825L21.175 6.325L19.825 8.8L20.05 9.175C20.35 9.7 20.575 10.225 20.725 10.75L20.8 11.125L23.5 11.95V14.05Z" fill="#171717"/>
  <path d="M13 7C9.65714 7 7 9.65714 7 13C7 16.3429 9.65714 19 13 19C16.3429 19 19 16.3429 19 13C19 9.65714 16.3429 7 13 7ZM13 17.2857C10.6 17.2857 8.71429 15.4 8.71429 13C8.71429 10.6 10.6 8.71429 13 8.71429C15.4 8.71429 17.2857 10.6 17.2857 13C17.2857 15.4 15.4 17.2857 13 17.2857Z" fill="#171717"/>
  <path d="M25.025 10.3188L22.75 9.5875L22.2625 8.36875L23.4 6.25625C23.6437 5.76875 23.5625 5.11875 23.1562 4.7125L21.2063 2.7625C20.8 2.35625 20.15 2.275 19.6625 2.51875L17.55 3.65625L16.3313 3.16875L15.6 0.89375C15.4375 0.40625 14.95 0 14.3813 0H11.6187C11.05 0 10.5625 0.40625 10.4812 0.975L9.75 3.25C9.2625 3.33125 8.85625 3.49375 8.45 3.7375L6.3375 2.6C5.85 2.35625 5.2 2.4375 4.79375 2.84375L2.84375 4.79375C2.4375 5.2 2.35625 5.85 2.6 6.3375L3.65625 8.36875C3.49375 8.775 3.33125 9.2625 3.16875 9.66875L0.89375 10.4C0.40625 10.5625 0 11.05 0 11.6187V14.3813C0 14.95 0.40625 15.4375 0.975 15.6L3.25 16.3313L3.7375 17.55L2.6 19.6625C2.35625 20.15 2.4375 20.8 2.84375 21.2063L4.79375 23.1562C5.2 23.5625 5.85 23.6437 6.3375 23.4L8.45 22.2625L9.66875 22.75L10.4 25.1063C10.5625 25.5938 11.05 26 11.6187 26H14.3813C14.95 26 15.4375 25.5938 15.6 25.1063L16.3313 22.75L17.55 22.2625L19.6625 23.4C20.15 23.6437 20.8 23.5625 21.2063 23.1562L23.1562 21.2063C23.5625 20.8 23.6437 20.15 23.4 19.6625L22.2625 17.55L22.75 16.3313L25.1063 15.6C25.5938 15.4375 26 14.95 26 14.3813V11.6187C26 11.05 25.5938 10.4813 25.025 10.3188ZM24.375 14.1375L21.45 15.0313L21.3687 15.4375L20.6375 17.1438L20.3938 17.55L21.8563 20.2313L20.2313 21.8563L17.55 20.3938L17.1438 20.6375C16.575 20.9625 16.0063 21.2062 15.4375 21.3687L15.0313 21.45L14.1375 24.375H11.8625L10.9688 21.45L10.5625 21.3687L8.85625 20.6375L8.45 20.3938L5.76875 21.8563L4.14375 20.2313L5.60625 17.55L5.3625 17.1438C5.0375 16.575 4.79375 16.0063 4.63125 15.4375L4.55 15.0313L1.625 14.1375V11.8625L4.3875 11.05L4.55 10.6438C4.7125 9.99375 4.95625 9.425 5.28125 8.85625L5.525 8.45L4.14375 5.76875L5.76875 4.14375L8.36875 5.60625L8.775 5.3625C9.34375 5.0375 9.9125 4.79375 10.5625 4.63125L10.9688 4.46875L11.8625 1.625H14.1375L15.0313 4.46875L15.4375 4.63125C16.0063 4.79375 16.575 5.0375 17.1438 5.3625L17.55 5.60625L20.2313 4.14375L21.8563 5.76875L20.3938 8.45L20.6375 8.85625C20.9625 9.425 21.2062 9.99375 21.3687 10.5625L21.45 10.9688L24.375 11.8625V14.1375Z" fill="#171717"/>
</svg>