<svg xmlns="http://www.w3.org/2000/svg" width="24" height="24" viewBox="0 0 24 24" fill="none">
  <path d="M12 0C5.3832 0 0 5.3832 0 12C0 18.6168 5.3832 24 12 24C18.6168 24 24 18.6168 24 12C24 5.3832 18.6168 0 12 0ZM12 21.6C6.7068 21.6 2.4 17.2932 2.4 12C2.4 10.5984 2.7096 9.27 3.2508 8.0688C3.4356 8.1768 3.6204 8.2872 3.798 8.4C4.2732 8.7 4.7472 9 5.3412 9.2256C5.934 9.45 6.6468 9.6 7.596 9.6C8.5464 9.6 9.2592 9.45 9.8532 9.2244C10.4472 8.9988 10.9224 8.7 11.3976 8.4C11.8728 8.1 12.348 7.8 12.942 7.5744C13.5348 7.35 14.2476 7.2 15.198 7.2C16.1484 7.2 16.8612 7.35 17.454 7.5756C18.048 7.8 18.5232 8.1 18.9984 8.4C19.4736 8.7 19.9488 9 20.5428 9.2256C20.7564 9.306 20.9916 9.372 21.24 9.4308C21.4692 10.2492 21.6 11.1084 21.6 12C21.6 17.2932 17.2932 21.6 12 21.6Z" fill="#171717"/>
  <path d="M7.8 14.4C8.79411 14.4 9.6 13.5941 9.6 12.6C9.6 11.6059 8.79411 10.8 7.8 10.8C6.80589 10.8 6 11.6059 6 12.6C6 13.5941 6.80589 14.4 7.8 14.4Z" fill="#171717"/>
  <path d="M16.2 14.4C17.1941 14.4 18 13.5941 18 12.6C18 11.6059 17.1941 10.8 16.2 10.8C15.2059 10.8 14.4 11.6059 14.4 12.6C14.4 13.5941 15.2059 14.4 16.2 14.4Z" fill="#171717"/>
</svg>